# xmcd
#
# Track frame offsets:
#	750
#	23174
#	40320
#	56993
#	76710
#	91050
#	107963
#	125637
#	140951
#	159528
#	176225
#	195285
#	214649
#	230963
#	248181
#	261535
#	279943
#	294746
#	311805
#	329917
#
# Disc length: 4627
#
# Revision: 1
# Processed by: cddbd v1.5.1PL0 Copyright (c) Steve Scherf et al.
# Submitted via: audiograbber 1.83.01
# Normalized: r0:DSETVAR1
#
DISCID=3c120914
DTITLE=Various Artist - HipHop Summer 2003 [CD 2)
DYEAR=2003
DGENRE=Hip Hop
TTITLE0=Snoop Dogg - Beautiful feat. Pharell Williams
TTITLE1=Nelly - Hot in Herre
TTITLE2=Busta Rhymes - Make It Clap
TTITLE3=Missy "Misdemeanor" Elliott - Work It
TTITLE4=Jay-Z - Sunshine feat. Foxy Brown
TTITLE5=Fat Joe - What's luv? feat. Ashanti
TTITLE6=OutKast - Ms. Jackson
TTITLE7=Wyclef Jean - Guantanamera
TTITLE8=Cypress Hill - Lowrider
TTITLE9=Khia - My Neck, My Back (Lick it)
TTITLE10=Clipse - When the last time
TTITLE11=Justin Timberlake - Cry Me a river
TTITLE12=Erick Sermon - Music feat. Marvin Gaye
TTITLE13=De La Soul - All Good? feat. Chaka Khan
TTITLE14=R. Kelly - Ignition (Remix)
TTITLE15=Luniz - I Got 5 on ot
TTITLE16=Dante Thomas - Miss California
TTITLE17=Jazzy Jeff and Fresh Prince - Summertime
TTITLE18=2Pac - California Love feat. Dr. Dre
TTITLE19=Dr. Dre - Nuthin' But a "G" Thang
EXTD=ID3G:  17 YEAR: 2003
EXTT0=
EXTT1=
EXTT2=
EXTT3=
EXTT4=
EXTT5=
EXTT6=
EXTT7=
EXTT8=
EXTT9=
EXTT10=
EXTT11=
EXTT12=
EXTT13=
EXTT14=
EXTT15=
EXTT16=
EXTT17=
EXTT18=
EXTT19=
PLAYORDER=
